<svg xmlns="http://www.w3.org/2000/svg" height="800" width="1200" viewBox="-28.2465 -49.5 244.803 297"><g fill-rule="evenodd" fill="none"><path d="M188.306 68.396l-40.04-8.72 4.07-40.776-37.517 16.48L94.143 0 73.477 35.383l-37.52-16.47 4.079 40.775L0 68.418l27.266 30.59L.005 129.604l40.038 8.72-4.07 40.776 37.518-16.479L94.166 198l20.667-35.383 37.52 16.47-4.079-40.774 40.036-8.73-27.265-30.59z" fill="#D10"/><path fill="#FFF" d="M116.747 68.374s-8.975 5.74-23.007 5.77c-14.031.029-21.623-5.77-21.623-5.77s2.304 9.864-1.452 22.535a41.683 41.683 0 01-12.617 19.589s12.492 1.455 21.12 7.959c8.627 6.504 14.94 18.318 14.94 18.318s5.417-11.36 14.374-18.078c8.956-6.718 21.848-8.119 21.848-8.119s-9.338-10.51-13.018-19.836c-3.68-9.326-.565-22.368-.565-22.368zm-12.825 44c-6.009 3.96-9.775 11.008-9.775 11.008a41.858 41.858 0 00-10.108-10.923 34.814 34.814 0 00-13.141-5.717s5.29-6.428 7.509-13.483a38.666 38.666 0 001.46-14.042s7.244 2.971 14.007 3.034c6.762.063 14.57-3.072 14.57-3.072s-1.843 8.034.46 14.501c2.303 6.468 8.415 12.977 8.415 12.977a48.054 48.054 0 00-13.397 5.717zm28.514-26.963c-2.41-7.864 4.396-45.052 4.396-45.052s-25.497 17.342-43.414 17.342-41.931-17.359-41.931-17.359 7.937 27.018 3.092 44.341c-4.844 17.324-29.451 36.834-29.451 36.834s32.157 1.852 44.368 10.099c12.21 8.246 24.628 40.018 24.628 40.018s16.497-35.007 23.395-40.018c6.899-5.012 45.663-10.143 45.663-10.143s-28.337-28.198-30.746-36.062zm-19.179 40.122c-12.707 8.81-19.125 28.13-19.125 28.13s-9.524-21.214-19.96-28.45c-10.438-7.235-31.787-9.139-31.787-9.139s16.472-14.55 20.45-27.592c3.978-13.04-.681-33.288-.681-33.288S79.878 66.11 93.602 66.129c13.724.018 32.56-10.923 32.56-10.923s-5.534 20.444-1.13 33.054c4.403 12.609 20.893 27.782 20.893 27.782s-19.96.681-32.668 9.491z"/></g></svg>